# xmcd
#
# Track frame offsets: 
#        150
#        23781
#        43373
#        60427
#        77145
#        96578
#        112567
#        136512
#        163460
#        180960
#        203762
#        222236
#        241573
#        261457
#        285108
#
# Disc length: 4079 seconds
#
# Revision: 0
# Processed by: cddbd v1.5.2PL0 Copyright (c) Steve Scherf et al.
# Submitted via: ExactAudioCopyFreeDBPlugin 1.0
#
DISCID=c40fed0f
DTITLE=群星 - TEST-CD试音极品 NO.36 CD-A 流行人声典范
DYEAR=2015
DGENRE=STE
TTITLE0=南山南
TTITLE1=大雨还在下
TTITLE2=泪满天
TTITLE3=红颜旧（琅琊榜主题曲）
TTITLE4=如果有来生
TTITLE5=走在冷风中
TTITLE6=默
TTITLE7=你飞到城市另一边
TTITLE8=幸福去拉萨
TTITLE9=模特
TTITLE10=匆匆那年
TTITLE11=爱随你远走
TTITLE12=分手时不哭泣
TTITLE13=带我到山顶
TTITLE14=给我一个理由忘记
EXTD=
EXTT0=
EXTT1=
EXTT2=
EXTT3=
EXTT4=
EXTT5=
EXTT6=
EXTT7=
EXTT8=
EXTT9=
EXTT10=
EXTT11=
EXTT12=
EXTT13=
EXTT14=
PLAYORDER=
